<svg width="21" height="11" viewBox="0 0 21 11" fill="none" xmlns="http://www.w3.org/2000/svg">
<path d="M10.3067 10.8879C10.7049 10.8485 11.0819 10.688 11.3847 10.4276L19.524 3.45102C19.9343 3.12248 20.1932 2.64104 20.2417 2.11868C20.2901 1.59633 20.1251 1.07704 19.7845 0.677315C19.4423 0.279144 18.9548 0.0353896 18.4309 0.00356854C17.9071 -0.0282258 17.3923 0.153457 17.0047 0.507745L10.125 6.40646L3.24529 0.507745C2.8577 0.153465 2.34295 -0.0282138 1.81908 0.00356854C1.29521 0.0353629 0.807705 0.279121 0.465542 0.677315C0.124886 1.077 -0.040146 1.59633 0.00830261 2.11868C0.0567513 2.64104 0.315649 3.12246 0.725963 3.45102L8.86534 10.4276C9.26351 10.7698 9.78435 10.9348 10.3067 10.8879Z" fill="white"/>
</svg>
